<svg width="1565" height="322" viewBox="0 0 1565 322" fill="none" xmlns="http://www.w3.org/2000/svg">
<path d="M90.5543 292.824C90.5543 298.345 90.7782 303.817 91.2066 309.231C37.4583 285.249 0 231.335 0 168.677C0 113.722 28.8216 65.4943 72.1708 38.2793C63.758 74.7347 70.905 111.784 95.1307 138.571C106.299 150.927 120.009 159.885 135.179 165.484C107.253 200.381 90.5543 244.655 90.5543 292.824Z" fill="#52F447"/>
<path d="M307.689 168.676C307.689 190.185 303.279 210.662 295.304 229.25C273.474 280.155 224.973 316.912 167.379 321.927C163.572 311.43 161.313 300.408 160.807 288.996C159.404 257.38 171.654 227.556 193.542 202.863C219.501 173.564 261.925 160.887 305.421 142.201C306.91 150.799 307.689 159.65 307.689 168.676Z" fill="#52F447"/>
<path d="M278.333 78.2686C241.809 85.6882 210.991 99.69 191.177 116.934C191.167 116.934 191.157 116.944 191.157 116.944C190.32 117.674 189.502 118.405 188.703 119.145C188.44 119.057 188.187 118.969 187.924 118.882C158.431 108.833 138.801 89.8946 140.408 69.8266C142.326 45.8054 174.01 28.2203 214.127 27.1006C239.901 38.0742 262.052 55.8929 278.333 78.2686Z" fill="#52F447"/>
<path d="M1284.7 202.677L1205.63 57.5117H1262.88L1302.09 133.415C1305.89 140.689 1308.42 146.382 1310.95 152.391C1313.8 146.698 1316.33 140.689 1320.12 133.099L1359.34 57.5117H1415L1335.93 202.677V291.547H1284.7V202.677Z" fill="#52F447"/>
<path d="M1176.21 200.147H1093.98V291.547H1042.75V57.5117H1191.71V104.951H1093.98V153.972H1176.21V200.147Z" fill="#52F447"/>
<path d="M993.914 57.5117V291.547H942.679V57.5117H993.914Z" fill="#52F447"/>
<path d="M704.174 291.547H654.521V57.5117H704.174L773.753 232.09L843.647 57.5117H893.933V291.547H844.28V242.526C844.28 191.924 844.28 180.855 846.81 163.46L797.156 291.547H750.349L701.012 163.46C703.858 180.855 704.174 200.463 704.174 226.081V291.547Z" fill="#52F447"/>
<path d="M530.019 57.5117V244.108H622.368V291.547H478.784V57.5117H530.019Z" fill="#52F447"/>
<path d="M387.533 291.548V133.416H436.237V291.548H387.533Z" fill="#52F447"/>
<path d="M388.051 105.737V57.5117H436.277V105.737H388.051Z" fill="#52F447"/>
<circle cx="1507.5" cy="57.5" r="52.5" stroke="#52F447" stroke-width="10"/>
<path d="M1513.45 42.0928L1513.6 42.4648L1523.27 66.0557L1532.93 42.4648L1533.08 42.0928H1538.1V72.958H1532.97V60.623C1532.97 57.8953 1532.97 56.0163 1533.01 54.5576L1525.71 72.583L1525.56 72.958H1520.97L1520.82 72.583L1513.59 54.7129C1513.63 56.1128 1513.65 57.7855 1513.65 59.6787V72.958H1508.51V42.0928H1513.45Z" fill="#52F447" stroke="#52F447" stroke-width="1.2"/>
<path d="M1487.98 42.0928C1492.55 42.0929 1496.42 43.6394 1499.15 46.3711C1501.88 49.1029 1503.43 52.9761 1503.43 57.5459C1503.43 62.0932 1501.9 65.9547 1499.2 68.6816C1496.5 71.4092 1492.67 72.9579 1488.14 72.958H1477.73V42.0928H1487.98ZM1482.95 68.0234H1487.85C1491.02 68.0234 1493.56 67.0026 1495.3 65.2197C1497.04 63.4353 1498.04 60.8276 1498.04 57.5459C1498.04 54.2212 1497.04 51.5941 1495.28 49.8008C1493.52 48.0089 1490.95 46.9854 1487.69 46.9854H1482.95V68.0234Z" fill="#52F447" stroke="#52F447" stroke-width="1.2"/>
</svg>
