<svg width="113" height="113" viewBox="0 0 113 113" fill="none" xmlns="http://www.w3.org/2000/svg">
<circle cx="56.05" cy="56.05" r="56.05" fill="#6A1B9A"/>
<path d="M60.0999 67.5267L56.4832 69.8628C56.3178 69.9697 56.1287 70.0231 55.9397 70.0231C55.7506 70.0231 55.5615 69.9697 55.3961 69.8628L51.7794 67.5267L33.7941 79.1436L28.3228 82.6779C28.7386 83.3965 29.5149 83.8802 30.4048 83.8802H81.4744C82.3643 83.8802 83.1407 83.3965 83.5564 82.6779L78.0851 79.1436L60.0999 67.5267Z" fill="white"/>
<path d="M34.4472 53.9458L55.9397 67.8283L59.9447 65.2419C59.5103 65.371 59.0566 65.4375 58.6014 65.4375C57.3655 65.4375 56.1969 64.9638 55.3097 64.1038L49.6857 58.6497C49.3355 58.7788 48.9644 58.8461 48.5909 58.8461C47.7886 58.8461 47.0296 58.5423 46.455 58.0173C45.7448 58.3147 44.9802 58.4702 44.2108 58.4702C43.1553 58.4702 42.1406 58.1841 41.2614 57.6671C40.3821 57.1501 39.6392 56.4024 39.127 55.4798L37.7268 52.9576C37.2315 52.0671 36.9847 51.0853 36.9935 50.0939H30.4045C29.9196 50.0939 29.4684 50.2381 29.0901 50.4858L29.7281 50.8978L34.4472 53.9458Z" fill="white"/>
<path d="M73.3429 52.3757C73.1224 53.1475 72.6143 53.7871 71.9122 54.1774C71.4666 54.4243 70.9625 54.5557 70.4543 54.5557C70.1153 54.5557 69.7843 54.4988 69.4733 54.3906C69.1623 54.2832 68.8706 54.1253 68.6117 53.925L66.5631 54.3361L64.5017 54.7505L60.1465 55.6249L61.8921 57.3176C62.9765 58.3692 63.4854 59.8327 63.2867 61.3307C63.1641 62.2604 62.7818 63.106 62.1935 63.7888L77.432 53.9458L82.1511 50.8978L82.7891 50.4858C82.4108 50.2381 81.9596 50.0939 81.4747 50.0939H73.0824C73.4703 50.7944 73.5633 51.6047 73.3429 52.3757Z" fill="white"/>
<path d="M83.8577 52.181L81.1255 53.9458L61.946 66.3344L79.1723 77.4606L83.8793 80.5006V52.4984C83.8793 52.391 83.8713 52.2844 83.8577 52.181Z" fill="white"/>
<path d="M49.9333 66.3344L30.7539 53.9458L28.0216 52.181C28.008 52.2844 28 52.391 28 52.4984V80.5006L32.7071 77.4606L49.9333 66.3344Z" fill="white"/>
<path d="M54.5305 32.6702L65.5424 52.4975L69.3393 51.7349C69.3605 51.7306 69.3805 51.7239 69.4012 51.7185L69.5776 52.036C69.8462 52.5197 70.4562 52.694 70.9399 52.4254C71.4236 52.1567 71.5979 51.5469 71.3293 51.0631L67.7531 44.624C70.4189 43.1434 71.3832 39.7701 69.9026 37.1042C68.422 34.4384 65.0487 33.4741 62.3829 34.9547L58.8067 28.5156C58.538 28.0319 57.9281 27.8576 57.4444 28.1262C56.9607 28.3949 56.7864 29.0047 57.055 29.4885L57.2313 29.806C57.2159 29.8208 57.1996 29.8341 57.1848 29.8499L54.5305 32.6702ZM68.1508 38.0772C69.0949 39.7771 68.48 41.9282 66.7801 42.8724L63.3556 36.7065C65.0556 35.7623 67.2066 36.3772 68.1508 38.0772Z" fill="white"/>
<path d="M40.8791 54.5073C41.9 56.3455 44.2176 57.008 46.0557 55.9871L47.1067 55.4034L47.5737 56.2442C47.8853 56.8054 48.5928 57.0076 49.1539 56.696L49.166 56.6893C49.7433 56.3687 50.4562 56.5131 50.8894 57.0114C50.9406 57.0703 50.9949 57.1278 51.0523 57.1834L56.7048 62.6657C57.5666 63.5014 58.8738 63.6744 59.9232 63.0916C61.5203 62.2046 61.8083 60.0276 60.497 58.7557L56.017 54.4108L63.4804 52.9117L53.0892 34.2019L45.4249 42.3459C45.3047 42.4737 45.2197 42.6242 45.1703 42.7843C45.1254 42.8023 45.0809 42.8223 45.0375 42.8464L42.3049 44.3641C41.7438 44.6757 41.5416 45.3833 41.8532 45.9443L42.0088 46.2246L40.9578 46.8083C39.1197 47.8291 38.4572 50.1468 39.4781 51.9849L40.8791 54.5073ZM41.9308 48.5599L42.9818 47.9762L46.1339 53.6516L45.0829 54.2353C44.2136 54.7181 43.1137 54.4037 42.6309 53.5344L41.2299 51.012C40.7471 50.1427 41.0616 49.0427 41.9308 48.5599Z" fill="white"/>
<path d="M69.6888 33.9526C69.8615 34.0705 70.0579 34.1268 70.2522 34.1268C70.5723 34.1268 70.8869 33.9737 71.0809 33.6892L73.4853 30.1627C73.797 29.7055 73.6791 29.0823 73.2219 28.7706C72.7649 28.4588 72.1416 28.5767 71.8299 29.0339L69.4254 32.5605C69.1137 33.0176 69.2316 33.6409 69.6888 33.9526Z" fill="white"/>
<path d="M76.3185 43.0748C76.4619 43.1462 76.6142 43.1801 76.7642 43.1801C77.1323 43.1801 77.4866 42.9763 77.6618 42.6244C77.9084 42.1291 77.7067 41.5276 77.2114 41.281L73.3904 39.379C72.895 39.1324 72.2936 39.3341 72.0471 39.8295C71.8005 40.3248 72.0022 40.9262 72.4975 41.1728L76.3185 43.0748Z" fill="white"/>
<path d="M71.3017 37.1921C71.4957 37.4765 71.8102 37.6295 72.1303 37.6295C72.3247 37.6295 72.5212 37.5731 72.6939 37.4553L79.8069 32.6039C80.264 32.2921 80.3818 31.6689 80.07 31.2117C79.7582 30.7547 79.1349 30.6368 78.6778 30.9486L71.5649 35.8C71.1078 36.1117 70.99 36.735 71.3017 37.1921Z" fill="white"/>
</svg>
