<svg width="113" height="113" viewBox="0 0 113 113" fill="none" xmlns="http://www.w3.org/2000/svg">
<circle cx="56.05" cy="56.05" r="56.05" fill="#6A1B9A"/>
<path d="M29.2318 63.6105C29.2318 66.2108 29.8026 68.2075 30.5485 69.4147C31.5266 70.9967 32.9851 71.6668 34.4724 71.6668C36.3905 71.6668 38.1454 71.1908 41.5268 66.514C44.2361 62.7654 47.4284 57.5031 49.5764 54.2045L53.214 48.6157C55.7405 44.7343 58.6649 40.4198 62.0188 37.495C64.7556 35.1079 67.7088 33.7819 70.6805 33.7819C75.6703 33.7819 80.4232 36.6733 84.0608 42.0964C88.0416 48.0353 89.9741 55.5162 89.9741 63.2363C89.9741 67.8258 89.0696 71.1978 87.5303 73.8621C86.0431 76.4387 83.1442 79.013 78.2682 79.013V71.6668C82.4435 71.6668 83.4855 67.8304 83.4855 63.4401C83.4855 57.1837 82.0266 50.24 78.8134 45.279C76.5325 41.7599 73.577 39.6098 70.3258 39.6098C66.8093 39.6098 63.9792 42.2618 60.7985 46.9915C59.1079 49.504 57.3722 52.5658 55.4234 56.021L53.2777 59.8216C48.9677 67.4636 47.876 69.2039 45.721 72.0768C41.9437 77.1069 38.7186 79.013 34.4724 79.013C29.4356 79.013 26.2501 76.8316 24.2777 73.545C22.6673 70.8667 21.8765 67.3522 21.8765 63.3477L29.2318 63.6105Z" fill="white"/>
<path d="M27.677 42.6146C31.0494 37.4169 35.9158 33.7817 41.4974 33.7817C44.7301 33.7817 47.9433 34.7385 51.2991 37.4783C54.9697 40.4738 58.8817 45.4065 63.7623 53.5366L65.5129 56.454C69.7369 63.4919 72.1408 67.1128 73.5473 68.8207C75.3568 71.0133 76.6235 71.6666 78.2696 71.6666C82.4444 71.6666 83.4864 67.8302 83.4864 63.4399L89.975 63.2361C89.975 67.8256 89.0705 71.1976 87.5312 73.862C86.044 76.4386 83.1456 79.0128 78.2696 79.0128C75.2384 79.0128 72.5531 78.3544 69.5832 75.5531C67.3006 73.4027 64.6316 69.5831 62.5783 66.1489L56.4709 55.9469C53.4067 50.8272 50.5956 47.0103 48.969 45.2811C47.219 43.4223 44.9692 41.1772 41.3792 41.1772C38.4736 41.1772 36.0059 43.2164 33.9409 46.3352L27.677 42.6146Z" fill="white"/>
<path d="M41.3779 41.1773C38.4723 41.1773 36.0046 43.2166 33.9396 46.3354C31.0199 50.7424 29.2318 57.3067 29.2318 63.6105C29.2318 66.2108 29.8026 68.2075 30.5485 69.4147L24.2777 73.545C22.6673 70.8667 21.8765 67.3522 21.8765 63.3477C21.8765 56.0655 23.8752 48.476 27.6759 42.6148C31.0484 37.4171 35.9146 33.7819 41.4963 33.7819L41.3779 41.1773Z" fill="white"/>
</svg>
