<svg width="113" height="113" viewBox="0 0 113 113" fill="none" xmlns="http://www.w3.org/2000/svg">
<circle cx="56.05" cy="56.05" r="56.05" fill="#6A1B9A"/>
<path d="M46.4238 27.5391C50.9047 27.5391 54.8306 28.4513 58.2012 30.2754C58.5203 30.4424 58.8324 30.6167 59.1377 30.7969L54.5225 38.873C54.0582 38.5108 53.5592 38.1833 53.0264 37.8896C51.123 36.7793 48.922 36.2236 46.4238 36.2236C43.9257 36.2237 41.7247 36.7793 39.8213 37.8896C37.918 38.9603 36.431 40.4871 35.3604 42.4697C34.3295 44.4523 33.8135 46.7521 33.8135 49.3691C33.8135 50.8339 33.9749 52.1998 34.2979 53.4658C34.4103 53.9065 34.5428 54.3354 34.6943 54.752C34.8853 55.2769 35.1073 55.7828 35.3604 56.2695C35.4723 56.4768 35.5889 56.6792 35.71 56.877C35.812 57.0436 35.9169 57.2073 36.0254 57.3672C36.4504 57.9937 36.9259 58.5683 37.4502 59.0908C37.6725 59.3123 37.9034 59.5247 38.1436 59.7275C38.6613 60.1649 39.2206 60.5588 39.8213 60.9092C41.7247 61.9798 43.9257 62.5146 46.4238 62.5146C48.922 62.5146 51.123 61.9798 53.0264 60.9092C54.9693 59.7989 56.4563 58.2522 57.4873 56.2695C58.558 54.2868 59.0938 51.9864 59.0938 49.3691C59.0937 48.9415 59.0794 48.522 59.0508 48.1113L65.3926 36.7852C65.623 37.1433 65.8432 37.5116 66.0527 37.8896C67.9164 41.1809 68.8486 45.0073 68.8486 49.3691C68.8486 53.7312 67.9165 57.5583 66.0527 60.8496C65.6415 61.5916 65.19 62.2965 64.6982 62.9639L70.1904 68.4561L70.4531 68.1934C71.0338 67.6126 71.9528 67.5895 72.5049 68.1416L88.999 84.6357L82.4268 91.207L65.9326 74.7129C65.3809 74.1608 65.4039 73.2427 65.9844 72.6621L66.248 72.3994L60.7578 66.9092C59.962 67.4991 59.1095 68.0366 58.2012 68.5225C54.8306 70.3069 50.9048 71.1992 46.4238 71.1992C41.943 71.1992 37.9971 70.3069 34.5869 68.5225C31.2164 66.6984 28.599 64.1409 26.7354 60.8496C24.9113 57.5583 24 53.7312 24 49.3691C24 45.0074 24.9114 41.1808 26.7354 37.8896C28.5991 34.5983 31.2164 32.0599 34.5869 30.2754C37.9971 28.4513 41.943 27.5391 46.4238 27.5391ZM70.7676 29.2939L67.9795 28.3643L54.9678 51.5996L44.7441 46.0234L37.0615 57.9756C36.8328 57.6987 36.6153 57.4088 36.4102 57.1064C36.306 56.9529 36.2055 56.795 36.1074 56.6348L35.7695 56.0479C35.651 55.8196 35.5392 55.5869 35.4346 55.3496L42.8857 40.4473L53.1084 45.0938L64.2617 25.5762L62.4033 23.7178L70.7676 20V29.2939Z" fill="white"/>
</svg>
