<svg width="95" height="95" viewBox="0 0 95 95" fill="none" xmlns="http://www.w3.org/2000/svg">
<path d="M84.2252 86.3543L93.234 92.1736C92.5529 93.1974 91.3907 93.8719 90.0699 93.8719H4.05042C2.72948 93.8719 1.56655 93.1977 0.885376 92.1736L9.89514 86.3543L40.0524 66.8738L46.0094 70.7215C46.3292 70.9281 46.6946 71.032 47.0602 71.032C47.4258 71.032 47.7921 70.9281 48.1119 70.7215L54.067 66.8738L84.2252 86.3543Z" stroke="#BB99FF" stroke-width="0.5"/>
<path d="M4.04993 37.4639H14.9005C14.9273 39.0912 15.3519 40.6971 16.1652 42.1592L18.5236 46.4073C19.4083 48.0008 20.6915 49.2927 22.2101 50.1856C23.7287 51.0785 25.4815 51.5723 27.3048 51.5723C28.5819 51.5723 29.8494 51.3214 31.0343 50.8467C32.0325 51.7085 33.3218 52.2061 34.6827 52.2061C35.2885 52.2061 35.8895 52.103 36.462 51.9102L45.8253 60.9913C47.3662 62.4848 49.3967 63.3076 51.5431 63.3077C51.8783 63.3077 52.2132 63.2852 52.545 63.2442L47.0607 66.7872L10.9952 43.4922L3.04602 38.3575L2.31555 37.8858C2.75655 37.6584 3.24606 37.5133 3.76575 37.4747L4.04993 37.4639Z" stroke="#BB99FF" stroke-width="0.5"/>
<path d="M90.0698 37.4639C90.6949 37.4639 91.2837 37.6175 91.8042 37.8858L91.0737 38.3575L83.1255 43.4922L58.5747 59.3497C59.15 58.397 59.5316 57.3224 59.6831 56.1739C60.0283 53.5723 59.1435 51.0285 57.2603 49.2022L54.6606 46.6817L61.5308 45.3028L65.0034 44.6046L68.3442 43.9337C68.7203 44.2118 69.1327 44.4411 69.5698 44.6124L69.7739 44.6876C70.3239 44.8789 70.9094 44.9796 71.5083 44.9796C72.4068 44.9795 73.2973 44.7466 74.0845 44.3106H74.0854C75.2482 43.6641 76.1105 42.6295 76.5347 41.379L76.6138 41.126C76.9649 39.8976 76.8647 38.6123 76.3394 37.4639H90.0698Z" stroke="#BB99FF" stroke-width="0.5"/>
<path d="M93.8705 41.2635V87.9696L86.3275 83.0995L57.6381 64.5682L89.6176 43.912L93.8666 41.1669C93.8675 41.1991 93.8705 41.2313 93.8705 41.2635Z" stroke="#BB99FF" stroke-width="0.5"/>
<path d="M4.50293 43.912L36.4814 64.5682L7.79297 83.0995L0.25 87.9696V41.2635C0.250004 41.2313 0.252029 41.1991 0.25293 41.1669L4.50293 43.912Z" stroke="#BB99FF" stroke-width="0.5"/>
<path d="M49.7161 0.430664C50.4101 0.0453062 51.2857 0.296273 51.6711 0.990234L57.6946 11.8359L57.8157 12.0537L58.0344 11.9326C62.404 9.50595 67.9339 11.0866 70.3606 15.4561C72.7872 19.8256 71.2065 25.3554 66.8372 27.7822L66.6184 27.9033L66.7395 28.1221L72.7629 38.9678C73.1483 39.6619 72.8983 40.5374 72.2043 40.9229C71.5104 41.3081 70.6357 41.0572 70.2502 40.3633L69.9524 39.8291L69.8586 39.6592L69.6702 39.709C69.6128 39.7241 69.6086 39.7269 69.5813 39.7324H69.5803L63.3645 40.9814L44.9934 7.9043L49.3391 3.28711H49.3401C49.3609 3.26492 49.362 3.26693 49.4084 3.22266L49.5481 3.08984L49.4543 2.9209L49.1575 2.38574C48.772 1.69158 49.0221 0.816126 49.7161 0.430664ZM67.8469 16.8525C66.1896 13.8685 62.4139 12.789 59.4299 14.4463L59.2112 14.5674L59.3333 14.7861L65.1008 25.1719L65.2219 25.3906L65.4407 25.2686C68.4245 23.6113 69.5039 19.8365 67.8469 16.8525Z" stroke="#BB99FF" stroke-width="0.5"/>
<path d="M59.376 41.7822L47.1416 44.2402L46.6748 44.3339L47.0166 44.665L54.5625 51.9833C56.6506 54.009 56.1917 57.4751 53.6484 58.8876C51.9773 59.8158 49.8958 59.5407 48.5234 58.2099L39.002 48.9755C38.9105 48.8869 38.8237 48.7949 38.7422 48.7011C37.9393 47.7778 36.6104 47.5041 35.5293 48.1044L35.5098 48.1152C34.6854 48.573 33.6454 48.2764 33.1875 47.4521L32.4014 46.0361L32.2793 45.8173L32.0615 45.9384L30.291 46.9218C27.3157 48.5743 23.5636 47.5017 21.9111 44.5263L19.5518 40.2773C17.8996 37.302 18.972 33.5508 21.9473 31.8984L23.7168 30.915L23.9355 30.7939L23.8145 30.5751L23.5518 30.1035C23.0939 29.2792 23.3914 28.239 24.2158 27.7812L28.8184 25.2255C28.8792 25.1917 28.9441 25.1617 29.0137 25.1337L29.124 25.0898L29.1592 24.9755C29.2316 24.7411 29.356 24.5212 29.5312 24.3349L42.2061 10.8661L59.376 41.7822ZM25.1133 33.4286L23.3428 34.412C21.8076 35.265 21.2218 37.173 21.9873 38.7324L22.0654 38.8818L24.4248 43.1308C25.3051 44.7154 27.3098 45.2881 28.8945 44.4081L30.665 43.4247L30.8838 43.3036L30.7627 43.0849L25.4531 33.5253L25.332 33.3076L25.1133 33.4286Z" stroke="#BB99FF" stroke-width="0.5"/>
<path d="M74.0315 1.88232C74.4787 1.22634 75.3728 1.05731 76.0286 1.50439C76.6845 1.95159 76.8536 2.84551 76.4065 3.50146L72.3567 9.44189C72.0786 9.8497 71.628 10.0697 71.1682 10.0698C70.9244 10.0698 70.6781 10.0081 70.4543 9.87939L70.3596 9.81982C69.7037 9.37263 69.5336 8.47773 69.9807 7.82178L69.9817 7.82275L74.0315 1.88232Z" stroke="#BB99FF" stroke-width="0.5"/>
<path d="M74.415 20.0359C74.7689 19.3257 75.6312 19.0368 76.3418 19.3904L82.7783 22.5936C83.4889 22.9475 83.7775 23.8107 83.4238 24.5213C83.1725 25.0258 82.6645 25.3182 82.1357 25.3182C81.9212 25.3181 81.703 25.2703 81.4971 25.1678L75.0605 21.9637C74.3501 21.6097 74.0614 20.7465 74.415 20.0359Z" stroke="#BB99FF" stroke-width="0.5"/>
<path d="M85.5002 5.17291C86.156 4.72553 87.05 4.89503 87.4973 5.55084C87.9446 6.20675 87.776 7.10053 87.1204 7.54791L75.1399 15.7198C74.8919 15.8889 74.6101 15.9697 74.3313 15.9698C73.8713 15.9698 73.42 15.7497 73.1418 15.3419C72.6946 14.686 72.864 13.792 73.5198 13.3448L85.5002 5.17291Z" stroke="#BB99FF" stroke-width="0.5"/>
</svg>
