<svg width="106" height="96" viewBox="0 0 106 96" fill="none" xmlns="http://www.w3.org/2000/svg">
<path d="M52.6982 52.0352L37.79 26.2133C33.0108 17.9355 35.847 7.35077 44.1248 2.57159C45.4496 1.80669 46.8335 1.23686 48.2433 0.853192M52.6982 52.0352L32.5481 86.9362C27.7689 95.214 17.1842 98.0501 8.90637 93.271C0.62858 88.4918 -2.2076 77.907 2.57158 69.6292L37.604 8.95135C40.0178 4.77044 43.9127 1.9777 48.2433 0.853192M52.6982 52.0352L72.8483 86.9362C77.6275 95.214 88.2123 98.0501 96.4901 93.271C104.768 88.4918 107.604 77.907 102.825 69.6292L67.7665 8.90635C63.7522 1.9534 55.642 -1.16037 48.2433 0.853192" stroke="#BB99FF" stroke-width="0.5"/>
</svg>
