<svg width="136" height="90" viewBox="0 0 136 90" fill="none" xmlns="http://www.w3.org/2000/svg">
<path d="M97.4678 0.25C107.327 0.25 116.75 5.94147 123.982 16.6836C131.9 28.4517 135.75 43.2861 135.75 58.6074C135.75 67.7053 133.951 74.3703 130.903 79.626C127.969 84.6898 122.255 89.7499 112.622 89.75C106.621 89.75 101.325 88.4565 95.4482 82.9336C90.9156 78.6795 85.5989 71.1032 81.501 64.2744L69.3037 43.9746C68.9555 43.3949 68.6093 42.8234 68.2646 42.2607L68.043 41.8994L67.834 42.2686C67.4862 42.8818 67.1349 43.5016 66.7803 44.1279L62.4951 51.6904C53.888 66.8955 51.714 70.3457 47.4209 76.0479C43.659 81.0389 40.1852 84.4621 36.6094 86.6387C33.0388 88.812 29.3539 89.75 25.1553 89.75C15.1855 89.7499 8.90442 85.4565 5.00977 78.9912V78.9902C1.8242 73.7117 0.250057 66.7677 0.25 58.8301C0.25 44.3819 4.23335 29.3283 11.7939 17.7119C18.5031 7.4096 28.1541 0.250013 39.1855 0.25C45.584 0.25 51.946 2.1342 58.6035 7.5498C62.1181 10.4075 65.7499 14.1599 69.6602 19.0918L69.8623 19.3477L70.0566 19.0859C73.2352 14.808 76.6569 10.7711 80.333 7.57715C85.7676 2.85436 91.6098 0.250094 97.4678 0.25ZM38.9492 14.4648C33.0186 14.465 28.0245 18.6121 23.8857 24.8398C18.0226 33.6571 14.4395 46.7697 14.4395 59.3525C14.4395 64.5583 15.5856 68.5806 17.1064 71.0332C19.1077 74.2582 22.1033 75.6327 25.1553 75.6328C27.1005 75.6328 28.9864 75.3905 31.2383 73.957C33.4768 72.532 36.063 69.9384 39.4463 65.2764C43.2644 60.013 47.5614 53.2548 51.2637 47.4307C52.428 45.599 53.5328 43.8593 54.5469 42.2871L55.5293 40.7734L61.3135 31.9199L61.4062 31.7783L61.3086 31.6396C58.4827 27.6302 56.0462 24.5711 54.2891 22.71C50.7953 19.0127 46.2358 14.4648 38.9492 14.4648ZM96.7598 11.3467C89.5951 11.3467 83.8766 16.7353 77.5254 26.1445C77.1249 26.7375 76.7237 27.346 76.3203 27.9688L76.2295 28.1074L76.3223 28.2441C78.3005 31.1686 80.358 34.3801 82.5098 37.9062L83.4375 39.4365L86.9336 45.2412V45.2422C94.8411 58.3688 99.5632 65.5352 102.448 69.1934L103.001 69.8789C104.816 72.0706 106.374 73.5118 107.904 74.4033C109.442 75.2988 110.94 75.6328 112.622 75.6328C114.746 75.6328 116.486 75.1459 117.899 74.2656C119.312 73.3855 120.383 72.1216 121.181 70.5898C122.772 67.5348 123.291 63.3923 123.291 59.0137C123.291 46.5344 120.372 32.6657 113.92 22.7412C109.341 15.7031 103.372 11.3468 96.7598 11.3467Z" stroke="#BB99FF" stroke-width="0.5"/>
</svg>
