<svg width="111" height="111" viewBox="0 0 111 111" fill="none" xmlns="http://www.w3.org/2000/svg">
<path d="M50.9404 0.25H59.3574C60.0879 0.25 60.7491 0.684529 61.0381 1.35547L63.9854 8.2041L64.0381 8.32617L64.168 8.35059C66.4189 8.7818 68.6138 9.37242 70.7402 10.1084L70.8652 10.1514L70.9717 10.0723L76.9453 5.61816C77.531 5.1815 78.3204 5.13569 78.9531 5.50098L86.2432 9.70996C86.8757 10.0752 87.2307 10.7815 87.1455 11.5068L86.2734 18.9219L86.2578 19.0537L86.3574 19.1396C88.0687 20.6241 89.6728 22.2292 91.1572 23.9404L91.2441 24.04L91.376 24.0244L98.79 23.1523C99.5157 23.067 100.223 23.4219 100.588 24.0547L104.797 31.3447C105.162 31.9774 105.116 32.7668 104.68 33.3525L100.225 39.3262L100.146 39.4326L100.189 39.5576C100.925 41.6839 101.516 43.8781 101.947 46.1289L101.972 46.2598L102.094 46.3115L108.941 49.2598C109.612 49.5486 110.048 50.2097 110.048 50.9404V59.3574C110.048 60.088 109.613 60.7492 108.941 61.0381L102.094 63.9854L101.972 64.0381L101.947 64.168C101.516 66.4189 100.925 68.6138 100.189 70.7402L100.146 70.8652L100.225 70.9717L104.68 76.9453C105.116 77.531 105.162 78.3205 104.797 78.9531L100.588 86.2432C100.223 86.8759 99.5156 87.2309 98.79 87.1455L91.376 86.2734L91.2441 86.2578L91.1572 86.3574C89.6728 88.0686 88.0686 89.6728 86.3574 91.1572L86.2578 91.2441L86.2734 91.376L87.1455 98.79C87.2308 99.5157 86.8758 100.223 86.2432 100.588L78.9531 104.797C78.3205 105.162 77.5311 105.116 76.9453 104.68L70.9717 100.225L70.8652 100.146L70.7402 100.189C68.6138 100.925 66.4189 101.516 64.168 101.947L64.0381 101.972L63.9854 102.094L61.0381 108.941C60.7492 109.613 60.0881 110.048 59.3574 110.048H50.9404C50.2098 110.048 49.5487 109.613 49.2598 108.941L46.3115 102.094L46.2598 101.972L46.1289 101.947L45.2881 101.777C43.331 101.365 41.4183 100.833 39.5576 100.189L39.4326 100.146L39.3262 100.225L33.3525 104.68C32.7669 105.116 31.9775 105.162 31.3447 104.797L24.0547 100.588C23.422 100.223 23.067 99.5156 23.1523 98.79L24.0244 91.376L24.04 91.2441L23.9404 91.1572C22.2292 89.6728 20.6241 88.0687 19.1396 86.3574L19.0537 86.2578L18.9219 86.2734L11.5068 87.1455C10.7814 87.2306 10.0752 86.8756 9.70996 86.2432L5.50098 78.9531C5.13565 78.3205 5.18151 77.5311 5.61816 76.9453L10.0723 70.9717L10.1514 70.8652L10.1084 70.7402C9.37242 68.6138 8.7818 66.4189 8.35059 64.168L8.32617 64.0381L8.2041 63.9854L1.35547 61.0381C0.684466 60.7491 0.25 60.088 0.25 59.3574V50.9404C0.25 50.2099 0.684557 49.5488 1.35547 49.2598L8.2041 46.3115L8.32617 46.2598L8.35059 46.1289C8.78179 43.8781 9.37247 41.6839 10.1084 39.5576L10.1514 39.4326L10.0723 39.3262L5.61816 33.3525C5.18148 32.7669 5.13573 31.9775 5.50098 31.3447L9.70996 24.0547C10.0752 23.4221 10.7814 23.0672 11.5068 23.1523L18.9219 24.0244L19.0537 24.04L19.1396 23.9404C20.6241 22.2291 22.2291 20.6241 23.9404 19.1396L24.04 19.0537L24.0244 18.9219L23.1523 11.5068C23.0672 10.7814 23.4221 10.0752 24.0547 9.70996L31.3447 5.50098C31.9774 5.13567 32.7668 5.18146 33.3525 5.61816L39.3262 10.0723L39.4326 10.1514L39.5576 10.1084C41.6839 9.37247 43.8781 8.78179 46.1289 8.35059L46.2598 8.32617L46.3115 8.2041L49.2598 1.35547C49.5487 0.684495 50.2099 0.25 50.9404 0.25ZM55.1484 17.4736C34.3414 17.4739 17.4738 34.3414 17.4736 55.1484C17.4736 75.9556 34.3413 92.824 55.1484 92.8242C75.9558 92.8242 92.8242 75.9558 92.8242 55.1484C92.824 34.3413 75.9557 17.4736 55.1484 17.4736Z" stroke="#BB99FF" stroke-width="0.5"/>
<path d="M54.8086 39.4064C54.904 39.06 55.3926 39.0601 55.4883 39.4064C56.0603 41.482 56.9556 44.8221 57.707 48.0421C58.4613 51.2741 59.0625 54.3513 59.0625 55.9181C59.0622 58.0865 57.3091 59.8429 55.1484 59.8429C52.9879 59.8426 51.2356 58.0863 51.2354 55.9181C51.2354 54.3513 51.8366 51.2741 52.5908 48.0421C53.3423 44.8221 54.2365 41.482 54.8086 39.4064Z" stroke="#BB99FF" stroke-width="0.5"/>
<mask id="path-3-inside-1_2232_151" fill="white">
<path d="M23.8828 47.927C22.8696 52.2615 22.7654 56.759 23.5769 61.1358C24.3883 65.5125 26.0978 69.6738 28.5974 73.357L38.0534 66.9397C36.4402 64.5627 35.337 61.8772 34.8133 59.0525C34.2897 56.2279 34.3569 53.3254 35.0107 50.5281L23.8828 47.927Z"/>
</mask>
<path d="M23.8828 47.927C22.8696 52.2615 22.7654 56.759 23.5769 61.1358C24.3883 65.5125 26.0978 69.6738 28.5974 73.357L38.0534 66.9397C36.4402 64.5627 35.337 61.8772 34.8133 59.0525C34.2897 56.2279 34.3569 53.3254 35.0107 50.5281L23.8828 47.927Z" stroke="#BB99FF" mask="url(#path-3-inside-1_2232_151)"/>
<mask id="path-4-inside-2_2232_151" fill="white">
<path d="M40.7102 26.5096C36.7385 28.5196 33.2263 31.3307 30.3951 34.7657C27.5638 38.2006 25.475 42.1849 24.2602 46.4673L35.2543 49.586C36.0383 46.8223 37.3864 44.251 39.2135 42.0342C41.0407 39.8174 43.3073 38.0032 45.8705 36.706L40.7102 26.5096Z"/>
</mask>
<path d="M40.7102 26.5096C36.7385 28.5196 33.2263 31.3307 30.3951 34.7657C27.5638 38.2006 25.475 42.1849 24.2602 46.4673L35.2543 49.586C36.0383 46.8223 37.3864 44.251 39.2135 42.0342C41.0407 39.8174 43.3073 38.0032 45.8705 36.706L40.7102 26.5096Z" stroke="#BB99FF" mask="url(#path-4-inside-2_2232_151)"/>
<mask id="path-5-inside-3_2232_151" fill="white">
<path d="M67.9333 25.6332C63.8406 23.8828 59.4296 22.9992 54.9784 23.0383C50.5272 23.0774 46.1323 24.0383 42.071 25.8604L46.7488 36.2871C49.3698 35.1112 52.2061 34.491 55.0787 34.4658C57.9514 34.4406 60.7981 35.0108 63.4394 36.1405L67.9333 25.6332Z"/>
</mask>
<path d="M67.9333 25.6332C63.8406 23.8828 59.4296 22.9992 54.9784 23.0383C50.5272 23.0774 46.1323 24.0383 42.071 25.8604L46.7488 36.2871C49.3698 35.1112 52.2061 34.491 55.0787 34.4658C57.9514 34.4406 60.7981 35.0108 63.4394 36.1405L67.9333 25.6332Z" stroke="#BB99FF" mask="url(#path-5-inside-3_2232_151)"/>
<mask id="path-6-inside-4_2232_151" fill="white">
<path d="M86.1033 45.9241C84.8135 41.6637 82.655 37.7167 79.7639 34.3321C76.8727 30.9474 73.3117 28.1984 69.3053 26.2584L64.3248 36.5439C66.9104 37.7959 69.2086 39.57 71.0744 41.7544C72.9402 43.9387 74.3333 46.486 75.1657 49.2355L86.1033 45.9241Z"/>
</mask>
<path d="M86.1033 45.9241C84.8135 41.6637 82.655 37.7167 79.7639 34.3321C76.8727 30.9474 73.3117 28.1984 69.3053 26.2584L64.3248 36.5439C66.9104 37.7959 69.2086 39.57 71.0744 41.7544C72.9402 43.9387 74.3333 46.486 75.1657 49.2355L86.1033 45.9241Z" stroke="#BB99FF" mask="url(#path-6-inside-4_2232_151)"/>
<mask id="path-7-inside-5_2232_151" fill="white">
<path d="M82.2391 72.8859C84.6737 69.1592 86.3097 64.9687 87.0442 60.5783C87.7786 56.1879 87.5955 51.693 86.5063 47.377L75.4258 50.1731C76.1287 52.9585 76.2469 55.8594 75.7729 58.6928C75.2989 61.5262 74.243 64.2306 72.6718 66.6356L82.2391 72.8859Z"/>
</mask>
<path d="M82.2391 72.8859C84.6737 69.1592 86.3097 64.9687 87.0442 60.5783C87.7786 56.1879 87.5955 51.693 86.5063 47.377L75.4258 50.1731C76.1287 52.9585 76.2469 55.8594 75.7729 58.6928C75.2989 61.5262 74.243 64.2306 72.6718 66.6356L82.2391 72.8859Z" stroke="#BB99FF" mask="url(#path-7-inside-5_2232_151)"/>
</svg>
