<svg width="99" height="109" viewBox="0 0 99 109" fill="none" xmlns="http://www.w3.org/2000/svg">
<path d="M70.9819 13.8076L67.064 12.5029L66.8687 12.4375L66.7671 12.6182L47.0698 47.79L31.7163 39.416L31.5122 39.3047L31.3862 39.501L19.8706 57.4131C19.606 57.0792 19.3527 56.7329 19.1099 56.375C18.9549 56.1465 18.8046 55.9117 18.6577 55.6719L18.1489 54.7891C17.9884 54.4798 17.8365 54.1641 17.6929 53.8438L28.8804 31.4697L44.2329 38.4473L44.4399 38.542L44.5532 38.3438L61.5405 8.61719L61.6353 8.45117L61.4995 8.31641L58.9253 5.74219L70.9819 0.383789V13.8076Z" stroke="#BB99FF" stroke-width="0.5"/>
<path d="M34.1543 11.733C40.9447 11.733 46.8821 13.1153 51.9736 15.8707L51.9766 15.8717C52.385 16.0854 52.7854 16.3078 53.1787 16.5358L46.4121 28.3756C45.7613 27.8856 45.0704 27.4359 44.3359 27.0309H44.3369C41.3947 25.3146 37.9976 24.4596 34.1543 24.4596C30.5513 24.4596 27.3408 25.2113 24.5293 26.7194L23.9756 27.0289C21.0341 28.6836 18.7363 31.0442 17.084 34.1041L17.082 34.1071C15.4902 37.1682 14.6982 40.7126 14.6982 44.7321C14.6983 46.9811 14.9468 49.0813 15.4443 51.0319C15.6175 51.7108 15.821 52.3718 16.0547 53.0143C16.2756 53.6217 16.5228 54.2132 16.7979 54.7877L17.084 55.36C17.2565 55.6795 17.4364 55.9915 17.623 56.2965C17.7804 56.5536 17.943 56.8056 18.1104 57.0524C18.7665 58.0194 19.4995 58.9072 20.3096 59.7145C20.6531 60.0569 21.0107 60.3854 21.3818 60.6989C22.1817 61.3745 23.0456 61.9823 23.9727 62.5231L23.9756 62.525C26.9171 64.1796 30.3127 65.0035 34.1543 65.0035C37.9959 65.0035 41.3915 64.1796 44.333 62.525L44.335 62.524C47.3347 60.8098 49.6332 58.4207 51.2256 55.36C52.8789 52.2982 53.7011 48.7529 53.7012 44.7321C53.7012 44.101 53.6802 43.4813 53.6396 42.8737L63.0586 26.0533C63.326 26.4824 63.5849 26.9202 63.833 27.3678L63.834 27.3698C66.6483 32.3397 68.0596 38.1248 68.0596 44.7321C68.0595 51.339 66.6482 57.1235 63.834 62.0934L63.833 62.0953C63.2118 63.2163 62.5297 64.281 61.7871 65.2887L61.6592 65.4615L70.3535 74.1559L70.9307 73.5787C71.726 72.7834 72.9662 72.7648 73.7012 73.4996L98.6465 98.4449L88.9902 108.101L64.0449 83.1559C63.3102 82.421 63.3289 81.1807 64.124 80.3854L64.7012 79.8082L64.5244 79.6315L56.1631 71.2692L56.0098 71.1168L55.8369 71.2448C54.6354 72.1354 53.3483 72.948 51.9756 73.6823C46.8837 76.378 40.9455 77.7301 34.1543 77.7301C27.3634 77.7301 21.395 76.3784 16.2422 73.6823H16.2412C11.1499 70.9261 7.19933 67.0638 4.38477 62.0934C1.63097 57.1236 0.250044 51.339 0.25 44.7321C0.25 38.1248 1.63083 32.3397 4.38477 27.3698C7.19972 22.3987 11.1512 18.5674 16.2432 15.8717L16.2441 15.8707C21.3965 13.1148 27.3642 11.7331 34.1543 11.733Z" stroke="#BB99FF" stroke-width="0.5"/>
</svg>
