<svg width="131" height="160" viewBox="0 0 131 160" fill="none" xmlns="http://www.w3.org/2000/svg">
<path d="M16.2031 139.727C16.2008 139.034 16.1888 138.355 16.2051 137.672C16.2168 137.237 16.2377 136.807 16.3096 136.395C16.4835 135.404 16.9375 134.583 17.7578 133.997C18.4767 133.487 19.3069 133.272 20.1973 133.254H20.1982C20.7964 133.24 21.3953 133.268 22.0068 133.294V133.295C22.2553 133.307 22.5008 133.336 22.75 133.363V135.949C22.1649 135.949 21.5635 135.936 20.9678 135.955H20.9658C20.5369 135.971 20.1191 136.06 19.8018 136.316C19.4741 136.581 19.2955 136.988 19.2773 137.543V137.545C19.2679 137.916 19.2606 138.526 19.2559 139.041C19.2535 139.299 19.2522 139.534 19.251 139.704C19.2504 139.789 19.2493 139.858 19.249 139.906V139.98L19.2471 140.231L19.499 140.232H22.6143C22.4824 141.233 22.3561 142.196 22.2275 143.169H19.2725L19.2725 151.75H16.1846V143.154H13.25V140.234H16.2031V139.727Z" stroke="#BB99FF" stroke-width="0.5"/>
<path d="M17.8838 124.25C22.7289 124.25 27.1442 126.229 30.3418 129.427C33.5396 132.625 35.5273 137.042 35.5273 141.889C35.5273 142.086 35.527 142.269 35.5098 142.45L35.5088 142.458V142.467C35.3714 147.083 33.4114 151.279 30.3418 154.35C27.2732 157.419 22.737 159.527 17.8838 159.527C17.6868 159.527 17.5035 159.527 17.3223 159.51L17.3145 159.509H17.3066C7.88119 159.206 0.250047 151.399 0.25 141.889C0.25 137.042 2.23771 132.625 5.43555 129.427C8.63318 126.228 13.0389 124.25 17.8838 124.25Z" stroke="#BB99FF" stroke-width="0.5"/>
<path d="M49.1055 0.25C55.3856 0.250014 61.1087 2.81465 65.2529 6.95996C69.3973 11.1055 71.9726 16.8299 71.9727 23.1113C71.9727 23.3653 71.9729 23.6055 71.9502 23.8438L71.9492 23.8525V23.8604C71.7712 29.8441 69.2312 35.2833 65.2529 39.2627C61.2757 43.2409 55.3963 45.9726 49.1055 45.9727C48.8515 45.9727 48.6113 45.9729 48.373 45.9502L48.3652 45.9492H48.3574C36.1408 45.5573 26.25 35.4379 26.25 23.1113C26.25 16.8298 28.8262 11.1055 32.9707 6.95996C37.115 2.81467 42.8255 0.25 49.1055 0.25Z" stroke="#BB99FF" stroke-width="0.5"/>
<path d="M54.5973 9.39856C54.628 9.97763 54.7754 11.3924 55.5114 12.8068C56.3907 14.4965 58.0997 16.1688 61.3688 16.4318C61.3689 17.233 61.3692 17.9399 61.3698 18.6378C61.3703 19.3254 61.3697 20.0047 61.3698 20.7579C60.9385 20.7385 60.048 20.6518 59.0006 20.3927C57.6858 20.0675 56.1573 19.4829 54.9938 18.463L54.5797 18.0997L54.5787 18.6505L54.5719 28.0206V28.0245C54.6168 31.2117 53.4474 33.75 51.5133 35.3263C49.58 36.9019 46.8533 37.5405 43.735 36.8722C38.4012 35.2975 36.6252 30.6375 37.5182 26.5597C38.4007 22.5304 41.8791 19.1102 47.1198 19.8204C47.1198 20.9667 47.1205 21.5574 47.1207 21.8615V22.1827C47.1207 22.1839 47.1215 22.1877 47.1217 22.1925C47.1218 22.1956 47.1216 22.2043 47.1217 22.2247C47.1219 22.2646 47.1225 22.3449 47.1227 22.506C47.1229 22.8045 47.1227 23.3794 47.1227 24.4855C44.923 24.2469 43.3974 25.0226 42.5709 26.2452C41.719 27.5058 41.6416 29.1962 42.2789 30.5997C42.8801 31.9244 44.3945 32.697 45.9332 32.7042C47.4871 32.7115 49.113 31.9416 49.9498 30.13L49.9586 30.1105L49.9645 30.09C50.1504 29.3946 50.2408 28.608 50.2408 27.7335V9.37805L54.5973 9.39856ZM47.2653 22.4064C47.3036 22.4246 47.3399 22.4305 47.3707 22.4308C47.3388 22.4307 47.3028 22.4243 47.2653 22.4064Z" stroke="#BB99FF" stroke-width="0.5"/>
<path d="M117.885 46.25C121.356 46.25 124.52 47.668 126.812 49.96C129.103 52.2521 130.527 55.4165 130.527 58.8887C130.527 59.0312 130.527 59.1603 130.515 59.2871L130.514 59.2949V59.3027C130.415 62.6101 129.011 65.617 126.812 67.8174C124.613 70.0166 121.362 71.5273 117.885 71.5273C117.742 71.5273 117.614 71.5267 117.487 71.5146L117.479 71.5137H117.472C110.718 71.297 105.25 65.7028 105.25 58.8887C105.25 55.4164 106.674 52.2521 108.966 49.96C111.257 47.6681 114.413 46.2501 117.885 46.25Z" stroke="#BB99FF" stroke-width="0.5"/>
<path d="M120.842 51.3517C120.872 51.7294 120.978 52.4611 121.36 53.1935C121.857 54.1481 122.815 55.0857 124.614 55.2618V57.4581C124.356 57.4389 123.926 57.3875 123.43 57.2648C122.705 57.0854 121.871 56.7653 121.241 56.213L120.827 55.8497V56.4005L120.823 61.6261V61.63C120.848 63.3786 120.207 64.7597 119.158 65.6144C118.113 66.4668 116.631 66.8198 114.925 66.4572C112.012 65.5988 111.044 63.0622 111.531 60.8351C112.008 58.6593 113.865 56.8166 116.667 57.1495C116.667 57.726 116.667 58.0307 116.667 58.1915C116.667 58.2814 116.668 58.3268 116.668 58.3497V59.5323C115.473 59.437 114.621 59.8766 114.15 60.5743C113.651 61.3123 113.608 62.2963 113.978 63.1105C114.335 63.8984 115.226 64.3446 116.115 64.3488C117.02 64.353 117.969 63.9032 118.456 62.8488L118.465 62.8292L118.471 62.8087C118.578 62.4097 118.629 61.961 118.629 61.4659V51.3409L120.842 51.3517Z" stroke="#BB99FF" stroke-width="0.5"/>
<path d="M14.8849 67.25C18.3565 67.25 21.5203 68.668 23.8116 70.96C26.1032 73.2521 27.5275 76.4165 27.5275 79.8887C27.5275 80.0312 27.5268 80.1603 27.5148 80.2871L27.5138 80.2949V80.3027C27.4154 83.6101 26.0114 86.617 23.8116 88.8174C21.613 91.0166 18.3618 92.5273 14.8849 92.5273C14.7426 92.5273 14.6141 92.5267 14.4874 92.5146L14.4796 92.5137H14.4718C7.71843 92.297 2.25021 86.7028 2.25012 79.8887C2.25012 76.4164 3.67437 73.2521 5.96594 70.96C8.25728 68.6681 11.4136 67.2501 14.8849 67.25Z" stroke="#BB99FF" stroke-width="0.5"/>
<path d="M17.8422 72.3517C17.8718 72.7294 17.9786 73.4611 18.3597 74.1935C18.8566 75.1481 19.8151 76.0857 21.6136 76.2618V78.4581C21.3562 78.4389 20.9263 78.3875 20.4301 78.2648C19.7051 78.0854 18.8716 77.7653 18.2416 77.213L17.8275 76.8497V77.4005L17.8236 82.6261V82.63C17.8482 84.3786 17.207 85.7597 16.1586 86.6144C15.1127 87.4668 13.6316 87.8198 11.9252 87.4572C9.01193 86.5988 8.04384 84.0622 8.53162 81.8351C9.0082 79.6593 10.8648 77.8166 13.6674 78.1495C13.6674 78.726 13.6672 79.0307 13.6674 79.1915C13.6674 79.2814 13.6682 79.3268 13.6683 79.3497V80.5323C12.4728 80.437 11.6215 80.8766 11.1498 81.5743C10.651 82.3123 10.6082 83.2963 10.9779 84.1105C11.3356 84.8984 12.2266 85.3446 13.1156 85.3488C14.0199 85.353 14.9693 84.9032 15.4564 83.8488L15.4652 83.8292L15.4711 83.8087C15.5777 83.4097 15.6293 82.961 15.6293 82.4659V72.3409L17.8422 72.3517Z" stroke="#BB99FF" stroke-width="0.5"/>
<path d="M88.6669 140.499C88.6669 140.137 88.7745 139.782 88.976 139.481C89.1774 139.179 89.4638 138.945 89.7988 138.806C90.1338 138.667 90.5025 138.631 90.8581 138.702C91.2137 138.772 91.5403 138.947 91.7967 139.203C92.0531 139.46 92.2277 139.787 92.2983 140.142C92.369 140.498 92.3327 140.866 92.1939 141.201C92.0551 141.536 91.82 141.823 91.5185 142.024C91.217 142.225 90.8625 142.333 90.4999 142.333C90.0137 142.333 89.5475 142.14 89.2037 141.796C88.86 141.452 88.6669 140.986 88.6669 140.499ZM87.6757 140.499C87.6757 141.058 87.8414 141.604 88.1517 142.068C88.462 142.533 88.9031 142.895 89.4192 143.109C89.9352 143.322 90.5031 143.378 91.0509 143.269C91.5987 143.16 92.102 142.891 92.4969 142.496C92.8919 142.101 93.1609 141.598 93.2699 141.05C93.3788 140.503 93.3229 139.935 93.1092 139.419C92.8954 138.903 92.5334 138.462 92.069 138.151C91.6045 137.841 91.0585 137.675 90.4999 137.675C90.129 137.675 89.7618 137.748 89.4191 137.89C89.0765 138.032 88.7651 138.24 88.5029 138.502C88.2406 138.765 88.0326 139.076 87.8907 139.419C87.7487 139.761 87.6757 140.129 87.6757 140.499ZM92.7759 137.563C92.7759 137.694 92.8145 137.822 92.887 137.93C92.9595 138.039 93.0625 138.123 93.1831 138.173C93.3036 138.223 93.4363 138.236 93.5644 138.211C93.6924 138.186 93.81 138.123 93.9024 138.031C93.9947 137.938 94.0576 137.821 94.0831 137.693C94.1086 137.565 94.0956 137.432 94.0457 137.311C93.9958 137.191 93.9113 137.088 93.8028 137.015C93.6943 136.943 93.5667 136.904 93.4362 136.904C93.2612 136.904 93.0934 136.973 92.9697 137.097C92.846 137.221 92.7764 137.388 92.7762 137.563M88.2782 144.976C87.9295 144.972 87.5839 144.909 87.2568 144.788C87.0196 144.696 86.8042 144.556 86.6243 144.376C86.4445 144.197 86.3044 143.981 86.2128 143.744C86.0917 143.417 86.0279 143.071 86.0241 142.723C85.9974 142.143 85.9922 141.969 85.9922 140.5C85.9922 139.031 85.998 138.858 86.0241 138.278C86.0284 137.929 86.0922 137.583 86.2128 137.256C86.3042 137.019 86.4444 136.803 86.6242 136.624C86.804 136.444 87.0195 136.304 87.2568 136.212C87.5839 136.091 87.9294 136.027 88.2782 136.024C88.8579 135.997 89.0321 135.992 90.5002 135.992C91.9683 135.992 92.1427 135.997 92.7229 136.024C93.0717 136.028 93.4171 136.092 93.7443 136.212C93.9816 136.304 94.1971 136.444 94.3769 136.624C94.5568 136.804 94.6969 137.019 94.7883 137.256C94.9094 137.583 94.9732 137.929 94.977 138.278C95.0037 138.858 95.009 139.031 95.009 140.5C95.009 141.969 95.0036 142.143 94.977 142.723C94.973 143.072 94.9091 143.417 94.7883 143.744C94.6968 143.981 94.5566 144.197 94.3768 144.377C94.197 144.556 93.9816 144.696 93.7443 144.788C93.4172 144.909 93.0717 144.973 92.7229 144.976C92.1432 145.003 91.9691 145.008 90.5002 145.008C89.0314 145.008 88.8578 145.003 88.2782 144.976M88.2326 135.033C87.7763 135.042 87.3248 135.129 86.8973 135.289C86.5319 135.43 86.2001 135.646 85.9231 135.923C85.646 136.2 85.43 136.532 85.2887 136.897C85.1286 137.325 85.0422 137.776 85.0332 138.233C85.0061 138.819 85 139.006 85 140.5C85 141.994 85.0062 142.181 85.0332 142.767C85.0422 143.224 85.1286 143.675 85.2887 144.103C85.43 144.468 85.6461 144.8 85.9231 145.077C86.2001 145.354 86.5319 145.57 86.8973 145.711C87.3248 145.871 87.7763 145.958 88.2326 145.967C88.8193 145.993 89.0065 146 90.5002 146C91.9939 146 92.1813 145.994 92.7678 145.967C93.2242 145.958 93.6757 145.871 94.1031 145.711C94.4685 145.57 94.8004 145.354 95.0774 145.077C95.3544 144.8 95.5705 144.468 95.7117 144.103C95.872 143.675 95.9584 143.224 95.9672 142.767C95.9939 142.181 96 141.994 96 140.5C96 139.006 95.9938 138.819 95.9672 138.233C95.9582 137.776 95.8718 137.325 95.7117 136.897C95.5705 136.532 95.3544 136.2 95.0775 135.923C94.8006 135.646 94.4688 135.43 94.1036 135.289C93.6761 135.128 93.2246 135.042 92.7682 135.033C92.1817 135.006 91.9943 135 90.5009 135C89.0076 135 88.8197 135.006 88.2329 135.033" fill="#BB99FF"/>
<path d="M89.8849 127.25C93.3565 127.25 96.5203 128.668 98.8116 130.96C101.103 133.252 102.527 136.416 102.527 139.889C102.527 140.031 102.527 140.16 102.515 140.287L102.514 140.295V140.303C102.415 143.61 101.011 146.617 98.8116 148.817C96.613 151.017 93.3618 152.527 89.8849 152.527C89.7426 152.527 89.6141 152.527 89.4874 152.515L89.4796 152.514H89.4718C82.7184 152.297 77.2502 146.703 77.2501 139.889C77.2501 136.416 78.6744 133.252 80.9659 130.96C83.2573 128.668 86.4136 127.25 89.8849 127.25Z" stroke="#BB99FF" stroke-width="0.5"/>
<path d="M61.9941 73.25C68.2437 73.25 73.9385 75.8026 78.0625 79.9277C82.1867 84.0531 84.75 89.7492 84.75 96C84.75 96.2529 84.7501 96.4924 84.7275 96.7295L84.7266 96.7373V96.7451C84.5494 102.7 82.0214 108.112 78.0625 112.072C74.1047 116.031 68.2543 118.75 61.9941 118.75C61.7415 118.75 61.5025 118.75 61.2656 118.728L61.2578 118.727H61.25C49.0929 118.337 39.25 108.267 39.25 96C39.25 89.7492 41.8133 84.0531 45.9375 79.9277C50.0617 75.8025 55.7447 73.25 61.9941 73.25Z" stroke="#BB99FF" stroke-width="0.5"/>
<line x1="73.2103" y1="115.865" x2="82.2103" y2="129.865" stroke="#BB99FF" stroke-width="0.5"/>
<line x1="108.127" y1="67.2151" x2="81.1274" y2="83.2151" stroke="#BB99FF" stroke-width="0.5"/>
<line x1="52.2461" y1="45.9561" x2="57.2461" y2="73.9561" stroke="#BB99FF" stroke-width="0.5"/>
</svg>
